<?xml version="1.0" encoding="UTF-8"?>
<svg id="Laag_1" data-name="Laag 1" xmlns="http://www.w3.org/2000/svg" version="1.1" viewBox="0 0 622.9 243.3">
  <defs>
    <style>
      .cls-1, .cls-2, .cls-3, .cls-4, .cls-5 {
        stroke-width: 0px;
      }

      .cls-1, .cls-3 {
        opacity: .4;
      }

      .cls-1, .cls-3, .cls-6 {
        isolation: isolate;
      }

      .cls-1, .cls-4 {
        fill: #dbb298;
      }

      .cls-2 {
        fill: #203f6c;
      }

      .cls-3, .cls-5 {
        fill: #20406d;
      }
    </style>
  </defs>
  <g class="cls-6">
    <g class="cls-6">
      <path class="cls-4" d="M154.7,202.5v-36.7h17.2c8,0,12.3,5.4,12.3,11.8s-4.4,11.7-12.3,11.7h-9.3v13.1h-7.8ZM170.8,172.5h-8.3v10.1h8.3c3.1,0,5.4-2,5.4-5.1s-2.3-5.1-5.4-5.1Z"/>
      <path class="cls-4" d="M221.7,202.5l-2.3-6.3h-16.4l-2.3,6.3h-8.6l14.2-36.7h9.8l14.1,36.7h-8.5ZM211.2,172.6l-6.1,16.8h12.2l-6-16.8Z"/>
      <path class="cls-4" d="M244.6,202.5v-36.7h14.5c11.5,0,19.5,7.3,19.5,18.4s-8,18.3-19.5,18.3h-14.5ZM252.4,195.6h6.7c7.3,0,11.5-5.2,11.5-11.4s-4-11.5-11.5-11.5h-6.7v22.9Z"/>
      <path class="cls-4" d="M295.1,202.5v-36.7h14.5c11.5,0,19.5,7.3,19.5,18.4s-8,18.3-19.5,18.3h-14.5ZM302.9,195.6h6.7c7.3,0,11.5-5.2,11.5-11.4s-4-11.5-11.5-11.5h-6.7v22.9Z"/>
      <path class="cls-4" d="M363,165.2c11.1,0,19.2,7.9,19.2,19s-8.1,19-19.2,19-19.1-7.9-19.1-19,8.1-19,19.1-19ZM363,172.1c-6.8,0-11.1,5.2-11.1,12s4.3,12,11.1,12,11.2-5.2,11.2-12-4.4-12-11.2-12Z"/>
      <path class="cls-4" d="M396.9,184.2c0-11.3,8.5-19,19.2-19s13,4.4,15.6,9l-6.7,3.3c-1.5-3-4.8-5.3-8.9-5.3-6.4,0-11.2,5.1-11.2,12s4.8,12,11.2,12,7.4-2.3,8.9-5.3l6.7,3.2c-2.6,4.6-7.3,9-15.6,9s-19.2-7.7-19.2-19Z"/>
      <path class="cls-4" d="M469.2,202.5l-11.1-14.7-2.9,3.4v11.3h-7.8v-36.7h7.8v16.4l13-16.4h9.6l-14.6,17.2,15.6,19.5h-9.6Z"/>
    </g>
  </g>
  <polygon class="cls-1" points="573.7 132.6 593.9 132.6 569.3 99.7 594 66.8 573.7 66.8 548.8 99.7 573.7 132.6"/>
  <polygon class="cls-3" points="544.2 132.6 564.4 132.6 539.7 99.7 564.5 66.8 544.2 66.8 519.3 99.7 544.2 132.6"/>
  <path class="cls-5" d="M69.3,41.8H25.5v90.8h19.9v-32.3h23.8c20.2,0,31.4-13.5,31.4-29.3s-11.1-29.3-31.4-29.3h.1ZM66.6,83.3h-21.2v-24.5h21.2c7.9,0,13.7,4.6,13.7,12.3s-5.9,12.2-13.7,12.2Z"/>
  <path class="cls-5" d="M142.7,65.2c-22.3,0-35.8,15.8-35.8,34.4s13.5,34.6,35.8,34.6,35.9-15.8,35.9-34.6-13.5-34.4-35.9-34.4h0ZM142.7,118.8c-11.1,0-17.3-8.8-17.3-19.2s6.2-19.1,17.3-19.1,17.4,8.9,17.4,19.1-6.3,19.2-17.4,19.2Z"/>
  <path class="cls-5" d="M256.8,132.6h-17.8v-39.7c0-9.1-4.9-12.3-12.5-12.3s-12.5,3.8-15.4,7.8v44.2h-17.8v-65.7h17.8v8.6c4.4-5,12.6-10.2,23.7-10.2s22,8.2,22,21v46.4h0Z"/>
  <path class="cls-5" d="M301.4,134.2c-12.5,0-19.2-6.3-19.2-18v-34.3h-11.2v-15.1h11.2v-18h17.9v18h13.8v15.1h-13.8v29.7c0,4.1,2.3,7.2,6.2,7.2s5.2-1,6.2-1.9l3.8,13.1c-2.7,2.3-7.4,4.2-14.9,4.2h0Z"/>
  <rect class="cls-5" x="330.3" y="66.8" width="17.8" height="65.7"/>
  <path class="cls-5" d="M339.1,59.8c-5.8,0-10.7-4.6-10.7-10.3s4.9-10.2,10.7-10.2,10.7,4.5,10.7,10.2-4.8,10.3-10.7,10.3Z"/>
  <path class="cls-5" d="M410.5,56.8c-1.8-1.8-4.2-2.7-7.4-2.7-4.9,0-8.4,3.1-8.4,9.3v3.5h13.8v15.1h-13.8v50.6h-17.9v-50.6h-11.2v-15.1h11.2v-3.5c0-14,9.3-22.9,22.9-22.9s13.3,1.6,17.7,6.1l-6.7,10.2h-.2Z"/>
  <path class="cls-5" d="M487.6,101.4c0-21.5-13.7-36.2-33.9-36.2s-35.1,15.4-35.1,34.4,15.6,34.6,36.2,34.6,21.2-3.1,27.9-9.1l-7.9-11.2c-4.4,4.1-12.3,6.5-18.1,6.5-11.5,0-18.4-6.9-19.5-15.2h50.4v-3.8ZM436.9,93.5c.8-6.5,5.6-14.6,16.7-14.6s16.3,8.3,16.7,14.6h-33.4Z"/>
  <path class="cls-2" d="M539.5,98.8"/>
  <polygon class="cls-5" points="514.8 132.6 494.7 132.6 519.3 99.7 494.6 66.8 514.8 66.8 539.7 99.7 514.8 132.6"/>
  <polygon class="cls-4" points="544.6 132.6 524.4 132.6 549.1 99.7 524.3 66.8 544.6 66.8 569.5 99.7 544.6 132.6"/>
</svg>